<svg id="visual" viewBox="0 0 900 900" width="900" height="900" xmlns="http://www.w3.org/2000/svg" xmlns:xlink="http://www.w3.org/1999/xlink" version="1.1"><path d="M0 73L82 73L164 73L245 64L327 82L409 64L491 82L573 82L655 73L736 91L818 82L900 91L900 0L818 0L736 0L655 0L573 0L491 0L409 0L327 0L245 0L164 0L82 0L0 0Z" fill="#2874a6"></path><path d="M0 280L82 271L164 262L245 244L327 298L409 253L491 253L573 316L655 253L736 334L818 307L900 325L900 89L818 80L736 89L655 71L573 80L491 80L409 62L327 80L245 62L164 71L82 71L0 71Z" fill="#009fa9"></path><path d="M0 343L82 325L164 325L245 289L327 343L409 307L491 325L573 361L655 298L736 379L818 361L900 370L900 323L818 305L736 332L655 251L573 314L491 251L409 251L327 296L245 242L164 260L82 269L0 278Z" fill="#4cbe74"></path><path d="M0 388L82 370L164 379L245 334L327 397L409 361L491 370L573 415L655 352L736 433L818 415L900 415L900 368L818 359L736 377L655 296L573 359L491 323L409 305L327 341L245 287L164 323L82 323L0 341Z" fill="#d4c71d"></path><path d="M0 451L82 433L164 424L245 388L327 442L409 406L491 415L573 469L655 406L736 487L818 460L900 469L900 413L818 413L736 431L655 350L573 413L491 368L409 359L327 395L245 332L164 377L82 368L0 386Z" fill="#f1c40f"></path><path d="M0 523L82 541L164 532L245 478L327 541L409 505L491 523L573 550L655 487L736 568L818 532L900 541L900 467L818 458L736 485L655 404L573 467L491 413L409 404L327 440L245 386L164 422L82 431L0 449Z" fill="#d4c71d"></path><path d="M0 631L82 640L164 667L245 622L327 667L409 640L491 658L573 667L655 595L736 676L818 676L900 667L900 539L818 530L736 566L655 485L573 548L491 521L409 503L327 539L245 476L164 530L82 539L0 521Z" fill="#4cbe74"></path><path d="M0 838L82 829L164 847L245 829L327 820L409 847L491 847L573 847L655 838L736 838L818 838L900 820L900 665L818 674L736 674L655 593L573 665L491 656L409 638L327 665L245 620L164 665L82 638L0 629Z" fill="#009fa9"></path><path d="M0 901L82 901L164 901L245 901L327 901L409 901L491 901L573 901L655 901L736 901L818 901L900 901L900 818L818 836L736 836L655 836L573 845L491 845L409 845L327 818L245 827L164 845L82 827L0 836Z" fill="#2874a6"></path></svg>